<svg width="85" height="85" viewBox="0 0 85 85" fill="none" xmlns="http://www.w3.org/2000/svg">
<rect width="85" height="85" fill="#F5F5F5"/>
<g clip-path="url(#clip0_0_1)">
<rect width="1920" height="5224" transform="translate(-782 -149)" fill="#F1F1F1"/>
<rect x="-47" y="-28" width="178" height="207" rx="10" fill="#D6FFD8"/>
<circle cx="42.5" cy="42.5" r="42.5" fill="#4BEEA7"/>
<path d="M33.5 31C33.1022 31 32.7206 31.158 32.4393 31.4393C32.158 31.7206 32 32.1022 32 32.5V47.5C32 47.8978 32.158 48.2794 32.4393 48.5607C32.7206 48.842 33.1022 49 33.5 49C33.8978 49 34.2794 48.842 34.5607 48.5607C34.842 48.2794 35 47.8978 35 47.5V32.5C35 32.1022 34.842 31.7206 34.5607 31.4393C34.2794 31.158 33.8978 31 33.5 31ZM43 31C42.6022 31 42.2206 31.158 41.9393 31.4393C41.658 31.7206 41.5 32.1022 41.5 32.5V41.5C41.5 41.8978 41.658 42.2794 41.9393 42.5607C42.2206 42.842 42.6022 43 43 43C43.3978 43 43.7794 42.842 44.0607 42.5607C44.342 42.2794 44.5 41.8978 44.5 41.5V32.5C44.5 32.1022 44.342 31.7206 44.0607 31.4393C43.7794 31.158 43.3978 31 43 31ZM51 32.5C51 32.1022 51.158 31.7206 51.4393 31.4393C51.7206 31.158 52.1022 31 52.5 31C52.8978 31 53.2794 31.158 53.5607 31.4393C53.842 31.7206 54 32.1022 54 32.5V51.5C54 51.8978 53.842 52.2794 53.5607 52.5607C53.2794 52.842 52.8978 53 52.5 53C52.1022 53 51.7206 52.842 51.4393 52.5607C51.158 52.2794 51 51.8978 51 51.5V32.5Z" fill="white"/>
<path d="M26.5 23H59.5C61.432 23 63 24.568 63 26.5V59.5C63 60.4283 62.6312 61.3185 61.9749 61.9749C61.3185 62.6312 60.4283 63 59.5 63H26.5C25.5717 63 24.6815 62.6312 24.0251 61.9749C23.3687 61.3185 23 60.4283 23 59.5V26.5C23 24.568 24.568 23 26.5 23ZM26 26.5V59.5C26 59.776 26.224 60 26.5 60H59.5C59.6326 60 59.7598 59.9473 59.8536 59.8536C59.9473 59.7598 60 59.6326 60 59.5V26.5C60 26.3674 59.9473 26.2402 59.8536 26.1464C59.7598 26.0527 59.6326 26 59.5 26H26.5C26.3674 26 26.2402 26.0527 26.1464 26.1464C26.0527 26.2402 26 26.3674 26 26.5Z" fill="white"/>
</g>
<defs>
<clipPath id="clip0_0_1">
<rect width="1920" height="5224" fill="white" transform="translate(-782 -149)"/>
</clipPath>
</defs>
</svg>
