<svg width="14" height="15" viewBox="0 0 14 15" fill="none" xmlns="http://www.w3.org/2000/svg">
<path d="M12.6 6.89318V2.72727C12.6 2.36561 12.4525 2.01877 12.1899 1.76304C11.9274 1.5073 11.5713 1.36364 11.2 1.36364H8.274C7.98 0.572727 7.21 0 6.3 0C5.39 0 4.62 0.572727 4.326 1.36364H1.4C0.63 1.36364 0 1.97727 0 2.72727V12.2727C0 12.6344 0.1475 12.9812 0.41005 13.237C0.672601 13.4927 1.0287 13.6364 1.4 13.6364H5.677C6.559 14.4818 7.763 15 9.1 15C11.809 15 14 12.8659 14 10.2273C14 8.925 13.468 7.75227 12.6 6.89318ZM6.3 1.36364C6.685 1.36364 7 1.67045 7 2.04545C7 2.42045 6.685 2.72727 6.3 2.72727C5.915 2.72727 5.6 2.42045 5.6 2.04545C5.6 1.67045 5.915 1.36364 6.3 1.36364ZM1.4 12.2727V2.72727H2.8V4.09091H9.8V2.72727H11.2V5.91818C10.563 5.625 9.856 5.45455 9.1 5.45455H2.8V6.81818H5.67C5.25 7.20682 4.928 7.67045 4.676 8.18182H2.8V9.54545H4.256C4.221 9.77045 4.2 9.99545 4.2 10.2273C4.2 10.9636 4.375 11.6523 4.676 12.2727H1.4ZM9.1 13.6364C7.168 13.6364 5.6 12.1091 5.6 10.2273C5.6 8.34545 7.168 6.81818 9.1 6.81818C11.032 6.81818 12.6 8.34545 12.6 10.2273C12.6 12.1091 11.032 13.6364 9.1 13.6364ZM9.45 10.3977L11.452 11.55L10.927 12.3818L8.4 10.9091V7.5H9.45V10.3977Z" fill="#92939F"/>
</svg>
